<svg width="48" height="49" viewBox="0 0 48 49" fill="none" xmlns="http://www.w3.org/2000/svg">
<path d="M6 12.5H10M10 12.5H42M10 12.5V40.5C10 41.5609 10.4214 42.5783 11.1716 43.3284C11.9217 44.0786 12.9391 44.5 14 44.5H34C35.0609 44.5 36.0783 44.0786 36.8284 43.3284C37.5786 42.5783 38 41.5609 38 40.5V12.5M16 12.5V8.5C16 7.43913 16.4214 6.42172 17.1716 5.67157C17.9217 4.92143 18.9391 4.5 20 4.5H28C29.0609 4.5 30.0783 4.92143 30.8284 5.67157C31.5786 6.42172 32 7.43913 32 8.5V12.5M20 22.5V34.5M28 22.5V34.5" stroke="#1E1E1E" stroke-width="4" stroke-linecap="round" stroke-linejoin="round"/>
</svg>
