<svg width="242" height="242" viewBox="0 0 242 242" fill="none" xmlns="http://www.w3.org/2000/svg">
<rect width="242" height="242" rx="40" fill="white"/>
<path d="M163.75 198.26C188.037 183.695 204.299 157.121 204.299 126.741H204.317C204.317 80.3304 166.377 42.7839 119.815 43.4272C74.0745 44.0616 37.1177 82.0549 37.6896 127.795C38.0559 157.532 54.0056 183.516 77.747 197.965C79.3019 198.912 81.2852 197.813 81.2852 195.999V127.393C81.2852 105.617 98.5398 87.3982 120.315 87.0318C142.555 86.6654 160.703 104.581 160.703 126.741C160.703 144.165 149.48 158.962 133.87 164.314C132.28 164.859 131.779 166.861 132.932 168.085L160.891 197.848C161.632 198.635 162.821 198.814 163.75 198.26Z" fill="url(#paint0_linear_2406_536)"/>
<defs>
<linearGradient id="paint0_linear_2406_536" x1="121" y1="43.4191" x2="121" y2="198.581" gradientUnits="userSpaceOnUse">
<stop stop-color="#A42262"/>
<stop offset="1" stop-color="#D83345"/>
</linearGradient>
</defs>
</svg>
