<svg width="48" height="49" viewBox="0 0 48 49" fill="none" xmlns="http://www.w3.org/2000/svg">
<g clip-path="url(#clip0_2675_508)">
<path d="M24 30.5C27.3137 30.5 30 27.8137 30 24.5C30 21.1863 27.3137 18.5 24 18.5C20.6863 18.5 18 21.1863 18 24.5C18 27.8137 20.6863 30.5 24 30.5Z" stroke="#1E1E1E" stroke-width="4" stroke-linecap="round" stroke-linejoin="round"/>
<path d="M38.8 30.5C38.5338 31.1032 38.4544 31.7724 38.572 32.4212C38.6896 33.07 38.9989 33.6686 39.46 34.14L39.58 34.26C39.9519 34.6315 40.2469 35.0726 40.4482 35.5582C40.6495 36.0438 40.7531 36.5643 40.7531 37.09C40.7531 37.6157 40.6495 38.1362 40.4482 38.6218C40.2469 39.1074 39.9519 39.5485 39.58 39.92C39.2085 40.2919 38.7674 40.5869 38.2818 40.7882C37.7962 40.9895 37.2757 41.0931 36.75 41.0931C36.2243 41.0931 35.7038 40.9895 35.2182 40.7882C34.7326 40.5869 34.2915 40.2919 33.92 39.92L33.8 39.8C33.3286 39.3389 32.73 39.0296 32.0812 38.912C31.4324 38.7944 30.7632 38.8738 30.16 39.14C29.5685 39.3935 29.064 39.8145 28.7086 40.3511C28.3533 40.8877 28.1626 41.5164 28.16 42.16V42.5C28.16 43.5609 27.7386 44.5783 26.9884 45.3284C26.2383 46.0786 25.2209 46.5 24.16 46.5C23.0991 46.5 22.0817 46.0786 21.3316 45.3284C20.5814 44.5783 20.16 43.5609 20.16 42.5V42.32C20.1445 41.658 19.9302 41.016 19.545 40.4774C19.1598 39.9388 18.6215 39.5286 18 39.3C17.3968 39.0338 16.7276 38.9544 16.0788 39.072C15.43 39.1896 14.8314 39.4989 14.36 39.96L14.24 40.08C13.8685 40.4519 13.4274 40.7469 12.9418 40.9482C12.4562 41.1495 11.9357 41.2531 11.41 41.2531C10.8843 41.2531 10.3638 41.1495 9.87824 40.9482C9.39265 40.7469 8.95149 40.4519 8.58 40.08C8.20809 39.7085 7.91306 39.2674 7.71176 38.7818C7.51046 38.2962 7.40685 37.7757 7.40685 37.25C7.40685 36.7243 7.51046 36.2038 7.71176 35.7182C7.91306 35.2326 8.20809 34.7915 8.58 34.42L8.7 34.3C9.16107 33.8286 9.47037 33.23 9.58801 32.5812C9.70565 31.9324 9.62623 31.2632 9.36 30.66C9.10647 30.0685 8.68551 29.564 8.14893 29.2086C7.61235 28.8533 6.98357 28.6626 6.34 28.66H6C4.93913 28.66 3.92172 28.2386 3.17157 27.4884C2.42143 26.7383 2 25.7209 2 24.66C2 23.5991 2.42143 22.5817 3.17157 21.8316C3.92172 21.0814 4.93913 20.66 6 20.66H6.18C6.84199 20.6445 7.48401 20.4302 8.0226 20.045C8.56119 19.6598 8.97143 19.1215 9.2 18.5C9.46623 17.8968 9.54565 17.2276 9.42801 16.5788C9.31037 15.93 9.00107 15.3314 8.54 14.86L8.42 14.74C8.04809 14.3685 7.75306 13.9274 7.55176 13.4418C7.35046 12.9562 7.24685 12.4357 7.24685 11.91C7.24685 11.3843 7.35046 10.8638 7.55176 10.3782C7.75306 9.89265 8.04809 9.45149 8.42 9.08C8.79149 8.70809 9.23265 8.41306 9.71824 8.21176C10.2038 8.01046 10.7243 7.90685 11.25 7.90685C11.7757 7.90685 12.2962 8.01046 12.7818 8.21176C13.2674 8.41306 13.7085 8.70809 14.08 9.08L14.2 9.2C14.6714 9.66107 15.27 9.97037 15.9188 10.088C16.5676 10.2056 17.2368 10.1262 17.84 9.86H18C18.5915 9.60647 19.096 9.18551 19.4514 8.64893C19.8067 8.11235 19.9974 7.48357 20 6.84V6.5C20 5.43913 20.4214 4.42172 21.1716 3.67157C21.9217 2.92143 22.9391 2.5 24 2.5C25.0609 2.5 26.0783 2.92143 26.8284 3.67157C27.5786 4.42172 28 5.43913 28 6.5V6.68C28.0026 7.32357 28.1933 7.95235 28.5486 8.48893C28.904 9.02551 29.4085 9.44647 30 9.7C30.6032 9.96623 31.2724 10.0456 31.9212 9.92801C32.57 9.81037 33.1686 9.50107 33.64 9.04L33.76 8.92C34.1315 8.54809 34.5726 8.25306 35.0582 8.05176C35.5438 7.85046 36.0643 7.74685 36.59 7.74685C37.1157 7.74685 37.6362 7.85046 38.1218 8.05176C38.6074 8.25306 39.0485 8.54809 39.42 8.92C39.7919 9.29149 40.0869 9.73265 40.2882 10.2182C40.4895 10.7038 40.5931 11.2243 40.5931 11.75C40.5931 12.2757 40.4895 12.7962 40.2882 13.2818C40.0869 13.7674 39.7919 14.2085 39.42 14.58L39.3 14.7C38.8389 15.1714 38.5296 15.77 38.412 16.4188C38.2944 17.0676 38.3738 17.7368 38.64 18.34V18.5C38.8935 19.0915 39.3145 19.596 39.8511 19.9514C40.3877 20.3067 41.0164 20.4974 41.66 20.5H42C43.0609 20.5 44.0783 20.9214 44.8284 21.6716C45.5786 22.4217 46 23.4391 46 24.5C46 25.5609 45.5786 26.5783 44.8284 27.3284C44.0783 28.0786 43.0609 28.5 42 28.5H41.82C41.1764 28.5026 40.5477 28.6933 40.0111 29.0486C39.4745 29.404 39.0535 29.9085 38.8 30.5Z" stroke="#1E1E1E" stroke-width="4" stroke-linecap="round" stroke-linejoin="round"/>
</g>
<defs>
<clipPath id="clip0_2675_508">
<rect width="48" height="48" fill="white" transform="translate(0 0.5)"/>
</clipPath>
</defs>
</svg>
