<svg width="242" height="242" viewBox="0 0 242 242" fill="none" xmlns="http://www.w3.org/2000/svg">
<rect width="242" height="242" rx="40" fill="#005CB9"/>
<path d="M172.9 95.0953C171.086 95.095 169.318 94.5235 167.847 93.4618C166.376 92.4001 165.277 90.9022 164.706 89.1806C161.648 80.0051 155.78 72.0243 147.934 66.369C140.088 60.7137 130.661 57.6705 120.99 57.6705C111.318 57.6705 101.891 60.7137 94.0452 66.369C86.1992 72.0243 80.3315 80.0051 77.2734 89.1806C76.9164 90.2577 76.3507 91.2538 75.6086 92.1121C74.8664 92.9704 73.9624 93.674 72.9482 94.1827C71.9339 94.6915 70.8294 94.9953 69.6977 95.077C68.566 95.1586 67.4292 95.0164 66.3525 94.6584C65.2758 94.3005 64.2801 93.7339 63.4225 92.991C62.5649 92.2481 61.8621 91.3434 61.3542 90.3287C60.8464 89.3141 60.5435 88.2093 60.4629 87.0775C60.3823 85.9457 60.5255 84.8091 60.8844 83.7327C65.0865 71.1148 73.153 60.1395 83.9408 52.3618C94.7285 44.5842 107.69 40.3988 120.99 40.3988C134.289 40.3988 147.251 44.5842 158.038 52.3618C168.826 60.1395 176.893 71.1148 181.095 83.7327C181.525 85.0307 181.641 86.4122 181.433 87.7637C181.225 89.1153 180.7 90.3983 179.9 91.5073C179.1 92.6164 178.049 93.5199 176.832 94.1436C175.615 94.7674 174.268 95.0935 172.9 95.0953Z" fill="url(#paint0_linear_2406_537)"/>
<path d="M58.7773 119.931C59.098 119.424 59.5341 119.001 60.05 118.696C60.5659 118.391 61.1467 118.212 61.745 118.175C65.5226 118.138 69.3114 118.055 73.0863 118.23C73.9898 118.319 74.8346 118.718 75.4761 119.361C76.1175 120.003 76.516 120.849 76.6032 121.752C80.317 136.855 91.6473 189.706 92.3407 193.977C93.2948 187.881 105.46 139.732 110.3 121.706C110.513 120.707 111.063 119.813 111.858 119.172C112.653 118.532 113.645 118.185 114.665 118.189C118.111 118.121 124.749 118.123 127.288 118.155C128.429 118.059 129.568 118.356 130.516 118.997C131.464 119.638 132.164 120.584 132.5 121.678C136.111 134.822 150.226 191.606 150.722 193.997C158.412 152.665 163.264 132.037 165.691 121.336C165.962 120.344 166.577 119.48 167.426 118.899C168.275 118.318 169.303 118.058 170.326 118.166C173.727 118.147 177.133 118.05 180.528 118.222C180.991 118.263 181.438 118.412 181.833 118.658C182.227 118.904 182.558 119.24 182.798 119.638C183.039 120.037 183.182 120.486 183.215 120.95C183.249 121.414 183.173 121.879 182.993 122.308C176.17 147.484 169.355 172.665 162.546 197.852C162.369 198.844 161.856 199.746 161.095 200.406C160.333 201.066 159.368 201.445 158.361 201.48C153.091 201.652 147.81 201.522 142.54 201.549C141.605 201.675 140.656 201.45 139.877 200.917C139.098 200.384 138.544 199.582 138.321 198.665C133.604 181.352 121.929 134.406 121.219 128.207C120.351 133.727 108.855 180.448 104.059 198.29C103.518 201.18 100.215 201.757 97.7575 201.569C92.8565 201.48 87.9556 201.682 83.0601 201.48C82.2317 201.456 81.4378 201.143 80.8162 200.594C80.1946 200.046 79.7845 199.298 79.6569 198.479C72.7784 173.403 65.9054 148.325 59.0379 123.245C58.8586 122.149 58.7714 121.041 58.7773 119.931Z" fill="white"/>
<defs>
<linearGradient id="paint0_linear_2406_537" x1="120.99" y1="25.1306" x2="120.99" y2="161.22" gradientUnits="userSpaceOnUse">
<stop stop-color="#F09701"/>
<stop offset="1" stop-color="#E36001"/>
</linearGradient>
</defs>
</svg>
