<svg width="41" height="40" viewBox="0 0 41 40" fill="none" xmlns="http://www.w3.org/2000/svg">
<rect x="0.5" width="40" height="40" rx="6.61157" fill="white"/>
<path d="M27.5662 32.7702C31.5804 30.3628 34.2684 25.9705 34.2684 20.9489H34.2714C34.2714 13.2777 28.0003 7.07172 20.3041 7.17805C12.7437 7.28292 6.63517 13.5628 6.72969 21.1232C6.79024 26.0384 9.42655 30.3333 13.3507 32.7215C13.6078 32.878 13.9356 32.6964 13.9356 32.3966V21.0567C13.9356 17.4574 16.7876 14.446 20.3868 14.3854C24.0629 14.3249 27.0625 17.2862 27.0625 20.9489C27.0625 23.8289 25.2075 26.2747 22.6273 27.1594C22.3644 27.2494 22.2817 27.5803 22.4723 27.7826L27.0935 32.7022C27.2161 32.8322 27.4125 32.8617 27.5662 32.7702Z" fill="url(#paint0_linear_2406_541)"/>
<defs>
<linearGradient id="paint0_linear_2406_541" x1="20.5" y1="7.17671" x2="20.5" y2="32.8233" gradientUnits="userSpaceOnUse">
<stop stop-color="#A42262"/>
<stop offset="1" stop-color="#D83345"/>
</linearGradient>
</defs>
</svg>
