<svg width="41" height="40" viewBox="0 0 41 40" fill="none" xmlns="http://www.w3.org/2000/svg">
<rect x="0.5" width="40" height="40" rx="6.61157" fill="#005CB9"/>
<path d="M29.0785 15.7182C28.7787 15.7182 28.4865 15.6237 28.2433 15.4482C28.0002 15.2727 27.8185 15.0252 27.724 14.7406C27.2186 13.224 26.2487 11.9048 24.9518 10.9701C23.655 10.0353 22.0969 9.5323 20.4982 9.5323C18.8996 9.5323 17.3415 10.0353 16.0446 10.9701C14.7478 11.9048 13.7779 13.224 13.2724 14.7406C13.2134 14.9186 13.1199 15.0833 12.9973 15.2251C12.8746 15.367 12.7252 15.4833 12.5575 15.5674C12.3899 15.6515 12.2073 15.7017 12.0202 15.7152C11.8332 15.7287 11.6453 15.7052 11.4673 15.646C11.2894 15.5869 11.1248 15.4932 10.983 15.3704C10.8413 15.2476 10.7251 15.0981 10.6412 14.9304C10.5572 14.7627 10.5072 14.58 10.4938 14.393C10.4805 14.2059 10.5042 14.018 10.5635 13.8401C11.2581 11.7545 12.5914 9.9404 14.3745 8.65485C16.1576 7.36929 18.3 6.67749 20.4982 6.67749C22.6964 6.67749 24.8389 7.36929 26.622 8.65485C28.4051 9.9404 29.7384 11.7545 30.433 13.8401C30.504 14.0547 30.5232 14.283 30.4889 14.5064C30.4546 14.7298 30.3677 14.9419 30.2355 15.1252C30.1033 15.3085 29.9295 15.4578 29.7284 15.5609C29.5272 15.664 29.3045 15.7179 29.0785 15.7182Z" fill="url(#paint0_linear_2406_538)"/>
<path d="M10.2152 19.8232C10.2682 19.7395 10.3403 19.6696 10.4256 19.6191C10.5109 19.5687 10.6069 19.5392 10.7058 19.533C11.3302 19.527 11.9564 19.5133 12.5804 19.5421C12.7297 19.5568 12.8693 19.6229 12.9754 19.7291C13.0814 19.8353 13.1473 19.975 13.1617 20.1244C13.7755 22.6207 15.6483 31.3564 15.7629 32.0624C15.9206 31.0547 17.9314 23.0961 18.7314 20.1166C18.7666 19.9516 18.8576 19.8038 18.989 19.6979C19.1204 19.592 19.2842 19.5346 19.4529 19.5353C20.0225 19.5242 21.1197 19.5245 21.5394 19.5298C21.7279 19.5139 21.9161 19.563 22.0728 19.6689C22.2296 19.7748 22.3453 19.9312 22.4008 20.1121C22.9977 22.2847 25.3308 31.6704 25.4128 32.0656C26.6838 25.2338 27.4858 21.8244 27.887 20.0556C27.9317 19.8915 28.0333 19.7487 28.1737 19.6527C28.314 19.5567 28.484 19.5138 28.6531 19.5316C29.2151 19.5284 29.7781 19.5123 30.3393 19.5408C30.4158 19.5476 30.4897 19.5723 30.555 19.6129C30.6202 19.6536 30.6749 19.7091 30.7146 19.7749C30.7543 19.8408 30.7779 19.915 30.7835 19.9917C30.7891 20.0684 30.7765 20.1453 30.7467 20.2162C29.619 24.3775 28.4925 28.5397 27.3672 32.7028C27.3378 32.8668 27.2531 33.0158 27.1272 33.1249C27.0013 33.234 26.8418 33.2967 26.6753 33.3025C25.8043 33.3309 24.9314 33.3094 24.0604 33.3139C23.9058 33.3347 23.7489 33.2974 23.6202 33.2094C23.4914 33.1214 23.3998 32.9888 23.363 32.8372C22.5833 29.9755 20.6536 22.2159 20.5363 21.1912C20.3928 22.1036 18.4925 29.8261 17.6998 32.7753C17.6104 33.253 17.0644 33.3483 16.6582 33.3171C15.8482 33.3025 15.0381 33.3359 14.2289 33.3025C14.092 33.2985 13.9608 33.2467 13.858 33.1561C13.7553 33.0655 13.6875 32.9418 13.6664 32.8064C12.5295 28.6616 11.3934 24.5165 10.2583 20.3711C10.2287 20.19 10.2143 20.0067 10.2152 19.8232Z" fill="white"/>
<defs>
<linearGradient id="paint0_linear_2406_538" x1="20.4982" y1="4.15382" x2="20.4982" y2="26.6479" gradientUnits="userSpaceOnUse">
<stop stop-color="#F09701"/>
<stop offset="1" stop-color="#E36001"/>
</linearGradient>
</defs>
</svg>
